# xmcd CD database file
#
# Track frame offsets:
#	150
#	23786
#	34604
#	50664
#	64371
#	79089
#	91224
#	109687
#	125589
#	146253
#	156635
#	167790
#
# Disc length: 2478 seconds
#
# Revision: 1
# Processed by: cddbd v1.5.2PL0 Copyright (c) Steve Scherf et al.
# Submitted via: CDex 1.70beta2
#
DISCID=a109ac0c
DTITLE=Willy Michl - Blues Goes To Mountain [1973] (2007)
DYEAR=1973
DGENRE=Blues
TTITLE0=Wer is mei Wind
TTITLE1=Letzt'n Montag um halb vier
TTITLE2=Willy's Liebeslied
TTITLE3=Du hast die Schnauz'n voll von mir
TTITLE4=Regentropfen Blues
TTITLE5=5'o-Clock Ragtime
TTITLE6=Es is scho a Kreuz
TTITLE7=Protein-Tango
TTITLE8=Bahnhofsblues
TTITLE9=G'fängnislied
TTITLE10=I möcht so gern a Wildpferdl sei
TTITLE11=Blues Goes to Mountain
EXTD=CD 2004 Heritage Edition YEAR: 1973
EXTT0=
EXTT1=
EXTT2=
EXTT3=
EXTT4=
EXTT5=
EXTT6=
EXTT7=
EXTT8=
EXTT9=
EXTT10=
EXTT11=
PLAYORDER=
